<svg xmlns="http://www.w3.org/2000/svg" viewBox="0 0 320 90" fill="none">
  <!-- Burger Empire — Full Logo: Icon + Wordmark -->
  <!-- Icon circle -->
  <circle cx="40" cy="45" r="38" fill="#1A1A1A"/>
  <!-- Crown -->
  <path d="M24 27L28 33L32 29L36 33L40 25L44 33L48 29L52 33L56 27V36H24V27Z" fill="#EB7A29"/>
  <circle cx="24" cy="26" r="2" fill="#EB7A29"/>
  <circle cx="40" cy="24" r="2" fill="#EB7A29"/>
  <circle cx="56" cy="26" r="2" fill="#EB7A29"/>
  <!-- Top bun -->
  <path d="M22 48C22 40 28 36 40 36C52 36 58 40 58 48H22Z" fill="#F4943E"/>
  <!-- Seeds -->
  <circle cx="34" cy="41" r="1.2" fill="#FFF5E0" opacity="0.85"/>
  <circle cx="40" cy="39" r="1.2" fill="#FFF5E0" opacity="0.85"/>
  <circle cx="46" cy="41" r="1.2" fill="#FFF5E0" opacity="0.85"/>
  <!-- Cheese -->
  <path d="M21 49H59L58 51H22L21 49Z" fill="#FFD43B"/>
  <!-- Patty -->
  <rect x="22" y="52" width="36" height="5" rx="2.5" fill="#9A1E29"/>
  <!-- Lettuce -->
  <path d="M21 59C25 56 29 60 33 57C37 60 41 56 45 59C49 56 53 59 59 58" stroke="#4AA056" stroke-width="3" stroke-linecap="round" fill="none"/>
  <!-- Bottom bun -->
  <path d="M22 61H58C58 61 56 68 40 68C24 68 22 61 22 61Z" fill="#F4943E"/>
  <!-- Wordmark -->
  <text x="92" y="42" font-family="system-ui, -apple-system, 'Segoe UI', sans-serif" font-size="30" font-weight="900" fill="#1A1A1A" letter-spacing="-0.5">Burger</text>
  <text x="92" y="72" font-family="system-ui, -apple-system, 'Segoe UI', sans-serif" font-size="30" font-weight="900" fill="#EB7A29" letter-spacing="-0.5">Empire</text>
</svg>
